<svg width="120" height="120" viewBox="0 0 120 120" fill="none" xmlns="http://www.w3.org/2000/svg">
<path d="M60 53.2666C68.7629 53.2666 75.8666 46.2524 75.8666 37.6C75.8666 28.9475 68.7629 21.9333 60 21.9333C51.2371 21.9333 44.1333 28.9475 44.1333 37.6C44.1333 46.2524 51.2371 53.2666 60 53.2666Z" fill="#885532"/>
<path d="M35.9332 39.1666H37.5332V37.7333C37.5429 33.5653 38.7188 29.4832 40.9279 25.9487C43.1369 22.4142 46.291 19.5685 50.0332 17.7333C48.9254 15.1819 47.1471 12.9781 44.8874 11.3561C42.6276 9.73411 39.9707 8.75445 37.1989 8.52117C34.4271 8.2879 31.6439 8.80972 29.1448 10.0312C26.6457 11.2527 24.5242 13.1283 23.0054 15.4587C21.4867 17.7891 20.6275 20.4873 20.5191 23.2668C20.4107 26.0463 21.0572 28.8033 22.3898 31.2449C23.7224 33.6865 25.6915 35.7216 28.0878 37.134C30.4842 38.5464 33.2183 39.2833 35.9999 39.2666L35.9332 39.1666ZM82.5332 37.6V39.0333H84.1332C86.8777 39.0058 89.5641 38.2388 91.9095 36.8133C94.2549 35.3877 96.1726 33.3562 97.4608 30.9327C98.7489 28.5091 99.3599 25.783 99.2294 23.0415C99.0989 20.2999 98.2317 17.6443 96.7192 15.354C95.2066 13.0638 93.1046 11.2236 90.6344 10.0273C88.1642 8.83098 85.4171 8.32271 82.6824 8.55599C79.9477 8.78928 77.3264 9.75549 75.0945 11.3529C72.8627 12.9504 71.1027 15.12 69.9999 17.6333C73.7433 19.4613 76.9009 22.2999 79.1157 25.8282C81.3305 29.3566 82.5143 33.4341 82.5332 37.6ZM74.2999 54.8333C80.9275 56.1451 87.3356 58.3897 93.3332 61.5C94.1782 61.9641 94.9435 62.5606 95.5999 63.2666H113.333V51.8666C113.336 51.4294 113.22 50.9996 112.997 50.6236C112.774 50.2476 112.452 49.9398 112.067 49.7333C103.427 45.2144 93.8165 42.8689 84.0666 42.9H81.8666C80.7113 47.5957 78.0545 51.7858 74.2999 54.8333ZM21.7666 69.7333C21.7605 68.0546 22.2139 66.4061 23.0776 64.9666C23.9413 63.527 25.1824 62.3513 26.6666 61.5666C32.6642 58.4563 39.0724 56.2118 45.6999 54.9C41.9635 51.8784 39.3083 47.7261 38.1332 43.0666H35.9332C26.1833 43.0356 16.5727 45.381 7.93324 49.9C7.5478 50.1064 7.22609 50.4143 7.00285 50.7903C6.77962 51.1662 6.66334 51.5961 6.66657 52.0333V73.3333H21.7666V69.7333ZM71.5332 88.9667H91.3999V93.6333H71.5332V88.9667Z" fill="#885532"/>
<path d="M109.367 70.8666H86.4665V67.5333C86.4665 66.6492 86.1153 65.8014 85.4902 65.1763C84.8651 64.5511 84.0172 64.1999 83.1332 64.1999C82.2491 64.1999 81.4013 64.5511 80.7761 65.1763C80.151 65.8014 79.7998 66.6492 79.7998 67.5333V70.8666H73.3332V61.4333C68.9476 60.5124 64.4809 60.0322 59.9998 59.9999C49.4791 59.9561 39.1086 62.4972 29.7998 67.3999C29.3852 67.615 29.0381 67.9406 28.7969 68.3406C28.5558 68.7406 28.4299 69.1995 28.4332 69.6666V88.3666H52.1332V108.667C52.1332 109.551 52.4844 110.399 53.1095 111.024C53.7346 111.649 54.5824 112 55.4665 112H109.367C110.251 112 111.098 111.649 111.724 111.024C112.349 110.399 112.7 109.551 112.7 108.667V74.1999C112.7 73.3159 112.349 72.468 111.724 71.8429C111.098 71.2178 110.251 70.8666 109.367 70.8666ZM106.033 105.4H58.7998V77.5333H79.7998V80.5666C79.7998 81.4507 80.151 82.2985 80.7761 82.9236C81.4013 83.5488 82.2491 83.8999 83.1332 83.8999C84.0172 83.8999 84.8651 83.5488 85.4902 82.9236C86.1153 82.2985 86.4665 81.4507 86.4665 80.5666V77.5333H106.033V105.4Z" fill="#885532"/>
</svg>
