<svg width="22" height="20" viewBox="0 0 22 20" fill="none" xmlns="http://www.w3.org/2000/svg">
<path d="M8.34609 16.738L8.30895 16.4408L8.02944 16.3333C7.83985 16.2604 7.663 16.1736 7.49826 16.0731L7.4976 16.0727C7.31749 15.9633 7.14131 15.8459 6.96904 15.7206L6.7411 15.5549L6.48127 15.664L3.91211 16.7435L1.60404 12.7569L3.82681 11.0736L4.06157 10.8958L4.01993 10.6043C4.00633 10.5091 3.99995 10.4201 3.99995 10.337V9.662C3.99995 9.57969 4.00631 9.49105 4.01993 9.39571L4.06157 9.10418L3.82681 8.9264L1.60404 7.24314L3.91211 3.25648L6.48127 4.33596L6.7411 4.44514L6.96904 4.27937C7.13851 4.15612 7.31608 4.04028 7.50189 3.93189C7.68399 3.82566 7.86412 3.73576 8.04226 3.66154L8.3101 3.54994L8.34609 3.26202L8.69134 0.5H13.3086L13.6538 3.26202L13.691 3.55917L13.9705 3.66667C14.1601 3.73959 14.3373 3.82648 14.5029 3.92705C14.6824 4.03654 14.8584 4.15397 15.0309 4.27937L15.2588 4.44514L15.5186 4.33596L18.0878 3.25648L20.3959 7.24314L18.1731 8.9264L17.9383 9.10418L17.98 9.39571C17.9936 9.49105 18 9.57969 18 9.662V10.337C18 10.3942 17.9912 10.4605 17.9692 10.5376L17.8751 10.8669L18.1481 11.0736L20.3709 12.7569L18.0635 16.7424L15.52 15.6646L15.2596 15.5543L15.0309 15.7206C14.8614 15.8439 14.6838 15.9597 14.498 16.0681C14.3159 16.1743 14.1358 16.2642 13.9576 16.3385L13.6898 16.4501L13.6538 16.738L13.3086 19.5H8.69134L8.34609 16.738ZM8.20632 7.17353L8.20615 7.17371C7.4384 7.95132 7.04995 8.90281 7.04995 10C7.04995 11.0972 7.4384 12.0487 8.20615 12.8263L8.20632 12.8265C8.97804 13.6073 9.93652 14 11.05 14C12.1492 14 13.1014 13.6057 13.8785 12.8286C14.6556 12.0514 15.05 11.0992 15.05 10C15.05 8.90077 14.6556 7.94858 13.8785 7.17145C13.1014 6.39431 12.1492 6 11.05 6C9.93652 6 8.97804 6.39268 8.20632 7.17353Z" fill="white" stroke="black"/>
</svg>
