<svg width="120" height="120" viewBox="0 0 120 120" fill="none" xmlns="http://www.w3.org/2000/svg">
<g clip-path="url(#clip0_16_139)">
<path d="M44 0.00421636C40.2688 -0.0850086 36.5574 0.57284 33.0842 1.93907C29.6109 3.30529 26.446 5.3523 23.7755 7.95969C21.105 10.5671 18.9829 13.6822 17.5341 17.1218C16.0852 20.5613 15.3388 24.2559 15.3388 27.9882C15.3388 31.7205 16.0852 35.4151 17.5341 38.8547C18.9829 42.2943 21.105 45.4094 23.7755 48.0168C26.446 50.6241 29.6109 52.6712 33.0842 54.0374C36.5574 55.4036 40.2688 56.0615 44 55.9722C47.7312 56.0615 51.4426 55.4036 54.9158 54.0374C58.3891 52.6712 61.554 50.6241 64.2245 48.0168C66.895 45.4094 69.0171 42.2943 70.4659 38.8547C71.9148 35.4151 72.6612 31.7205 72.6612 27.9882C72.6612 24.2559 71.9148 20.5613 70.4659 17.1218C69.0171 13.6822 66.895 10.5671 64.2245 7.95969C61.554 5.3523 58.3891 3.30529 54.9158 1.93907C51.4426 0.57284 47.7312 -0.0850086 44 0.00421636ZM28 71.9562C20.5739 71.9562 13.452 74.9062 8.20101 80.1573C2.94999 85.4083 0 92.5302 0 99.9563L0 119.932H88V99.9563C88 92.5302 85.05 85.4083 79.799 80.1573C74.548 74.9062 67.4261 71.9562 60 71.9562H28ZM100 80.0042H96V120.004H120V100.004C120 94.6999 117.893 89.6128 114.142 85.8621C110.391 82.1114 105.304 80.0042 100 80.0042Z" fill="#0086BB"/>
<path d="M92 32C86.6957 32 81.6086 34.1071 77.8579 37.8579C74.1071 41.6086 72 46.6957 72 52C72 57.3043 74.1071 62.3914 77.8579 66.1421C81.6086 69.8929 86.6957 72 92 72C97.3043 72 102.391 69.8929 106.142 66.1421C109.893 62.3914 112 57.3043 112 52C112 46.6957 109.893 41.6086 106.142 37.8579C102.391 34.1071 97.3043 32 92 32Z" fill="#0086BB"/>
</g>
<defs>
<clipPath id="clip0_16_139">
<rect width="120" height="120" fill="white"/>
</clipPath>
</defs>
</svg>
