<svg width="16" height="18" viewBox="0 0 16 18" fill="none" xmlns="http://www.w3.org/2000/svg">
<path d="M0.660004 6.32403L0.660424 6.32319C0.767013 6.1095 0.911277 5.93843 1.09568 5.8032L1.0957 5.80323L1.1 5.8L7.09689 1.30233C7.24095 1.19796 7.38624 1.1233 7.53311 1.07434C7.68072 1.02514 7.83556 1 8 1C8.16444 1 8.31928 1.02514 8.46689 1.07434C8.61376 1.1233 8.75904 1.19795 8.9031 1.30232L14.9 5.8L14.9 5.80002L14.9043 5.8032C15.0888 5.93851 15.2335 6.10975 15.3408 6.32368C15.4474 6.53754 15.5 6.76097 15.5 7V16C15.5 16.4162 15.3578 16.7603 15.0597 17.0592C14.7607 17.3577 14.4164 17.5 14 17.5H10.5V11V10.5H10H6H5.5V11V17.5H2C1.58354 17.5 1.23978 17.3577 0.941553 17.0594C0.642483 16.7604 0.5 16.4162 0.5 16V7C0.5 6.76118 0.552824 6.53788 0.660004 6.32403ZM0.213 6.1C0.354333 5.81667 0.55 5.58333 0.8 5.4L0.213 6.1Z" fill="white" stroke="black"/>
</svg>
