<svg width="40" height="40" viewBox="0 0 40 40" fill="none" xmlns="http://www.w3.org/2000/svg">
<path d="M30.4167 36.6667L25.8333 31.6667L27.7667 29.7L30.4167 32.35L36.4 26.3667L38.3333 28.7167M32.5 5.83337L30 3.33337L27.5 5.83337L25 3.33337L22.5 5.83337L20 3.33337L17.5 5.83337L15 3.33337L12.5 5.83337L10 3.33337L7.5 5.83337L5 3.33337V36.6667L7.5 34.1667L10 36.6667L12.5 34.1667L15 36.6667L17.5 34.1667L20 36.6667L22.1 34.5667C21.8167 33.6334 21.6667 32.65 21.6667 31.6667C21.6667 30.5334 21.8667 29.4 22.2333 28.3334H10V25H24.2167C25.5379 23.5226 27.2682 22.471 29.188 21.9784C31.1078 21.4858 33.1307 21.5746 35 22.2334V3.33337L32.5 5.83337ZM30 21.6667H10V18.3334H30V21.6667ZM30 15H10V11.6667H30V15Z" fill="white"/>
</svg>
