<svg width="24" height="24" viewBox="0 0 24 24" fill="none" xmlns="http://www.w3.org/2000/svg">
<path d="M6.50091 12.5H6.5C6.16276 12.5 5.8291 12.4671 5.5 12.4102V17V17.2071L5.35355 17.3536L3.5 19.2071V19.5H20.5V19.2071L18.6464 17.3536L18.5 17.2071V17V11C18.5 8.12038 16.6146 5.5862 13.858 4.7694L13.5 4.66334V4.29001V4.00001C13.5 3.17615 12.8239 2.50001 12 2.50001L11.9988 2.5C11.7861 2.49951 11.576 2.54647 11.3837 2.63748C11.3164 2.66936 11.2518 2.70636 11.1906 2.74806C12.0015 3.77522 12.5 5.0767 12.5 6.50001L12.5 6.50091C12.4971 8.09108 11.8641 9.6153 10.7397 10.7397C9.6153 11.8642 8.09108 12.4971 6.50091 12.5ZM3.5 6.50001C3.5 8.15386 4.84614 9.50001 6.5 9.50001C8.15386 9.50001 9.5 8.15386 9.5 6.50001C9.5 4.84615 8.15386 3.50001 6.5 3.50001C4.84614 3.50001 3.5 4.84615 3.5 6.50001ZM10.584 21.5C10.7881 22.085 11.3418 22.5 12 22.5C12.3978 22.5 12.7794 22.342 13.0607 22.0607C13.2204 21.901 13.3403 21.709 13.4142 21.5H10.584Z" fill="white" stroke="#0D81FF"/>
</svg>
