<svg width="28" height="34" viewBox="0 0 28 34" fill="none" xmlns="http://www.w3.org/2000/svg">
<path d="M0.666748 33.6667V7.00004H7.33341C7.33341 5.16671 7.98619 3.59726 9.29175 2.29171C10.5973 0.986152 12.1667 0.333374 14.0001 0.333374C15.8334 0.333374 17.4029 0.986152 18.7084 2.29171C20.014 3.59726 20.6667 5.16671 20.6667 7.00004H27.3334V33.6667H0.666748ZM14.0001 3.66671C13.0834 3.66671 12.299 3.99337 11.6467 4.64671C10.9934 5.29893 10.6667 6.08337 10.6667 7.00004H17.3334C17.3334 6.08337 17.0073 5.29893 16.3551 4.64671C15.7017 3.99337 14.9167 3.66671 14.0001 3.66671ZM7.33341 15.3334H10.6667V10.3334H7.33341V15.3334ZM17.3334 15.3334H20.6667V10.3334H17.3334V15.3334Z" fill="white"/>
</svg>
