<svg width="23" height="14" viewBox="0 0 23 14" fill="none" xmlns="http://www.w3.org/2000/svg">
<path d="M16.9086 5.4982C17.3015 4.72769 17.5087 3.87197 17.5087 3C17.5087 2.12803 17.3015 1.27231 16.9086 0.5018C16.9391 0.500621 16.9696 0.500021 17.0002 0.500001L16.9086 5.4982ZM16.9086 5.4982C16.9391 5.49938 16.9697 5.49998 17.0003 5.5L16.9086 5.4982ZM6.49999 12.0031C6.49999 12.0031 6.49999 12.0031 6.49999 12.003V12.0031ZM6.5 13.5V12.0023C6.50001 12.0019 6.50002 12.0013 6.50004 12.0006C6.50012 11.9972 6.50033 11.9903 6.50084 11.9801C6.50186 11.9596 6.50409 11.9261 6.50887 11.8814C6.51847 11.7919 6.53824 11.6586 6.57882 11.4963C6.66012 11.1711 6.82325 10.7357 7.15 10.3C7.78619 9.45175 9.122 8.5 12 8.5C14.878 8.5 16.2138 9.45175 16.85 10.3C17.1768 10.7357 17.3399 11.1711 17.4212 11.4963C17.4618 11.6586 17.4815 11.7919 17.4911 11.8814C17.4959 11.9261 17.4981 11.9596 17.4992 11.9801C17.4997 11.9903 17.4999 11.9972 17.5 12.0006C17.5 12.0014 17.5 12.0019 17.5 12.0023V13.5H6.5ZM22.5 12.0023V13.5H20.5V12V11.9921L20.4998 11.9843C20.4743 11.1746 20.2878 10.378 19.9512 9.64114C19.8179 9.34933 19.6621 9.0692 19.4855 8.80314C20.8567 9.1876 21.5846 9.87624 21.9807 10.4861C22.242 10.8885 22.3725 11.2773 22.4374 11.5637C22.4697 11.7066 22.4854 11.8226 22.493 11.8998C22.4968 11.9383 22.4986 11.9669 22.4994 11.9842L22.5 12.0013C22.5 12.0017 22.5 12.002 22.5 12.0023ZM2.39756 7.85467L2.75062 8.20551L3.10306 7.85405L6.30345 4.66257L6.82562 5.29728L2.76571 9.35719L0.692069 7.09504L1.16111 6.62599L2.39756 7.85467ZM14.0787 1.61108C14.3534 2.0222 14.5 2.50555 14.5 3C14.5 3.66304 14.2366 4.29893 13.7678 4.76777C13.2989 5.23661 12.663 5.5 12 5.5C11.5055 5.5 11.0222 5.35338 10.6111 5.07868C10.2 4.80397 9.87952 4.41353 9.6903 3.95671C9.50108 3.49989 9.45157 2.99723 9.54804 2.51228C9.6445 2.02732 9.8826 1.58187 10.2322 1.23223C10.5819 0.882603 11.0273 0.644501 11.5123 0.548038C11.9972 0.451575 12.4999 0.501083 12.9567 0.690303C13.4135 0.879522 13.804 1.19995 14.0787 1.61108ZM18.7678 4.76777C18.299 5.23654 17.6632 5.49992 17.0003 5.5V0.500001C17.6632 0.50008 18.299 0.763464 18.7678 1.23223C19.2366 1.70108 19.5 2.33696 19.5 3C19.5 3.66304 19.2366 4.29893 18.7678 4.76777Z" fill="white" stroke="black"/>
</svg>
